<svg xmlns="http://www.w3.org/2000/svg" width="1200" height="360" viewBox="0 0 1200 360" role="img" aria-labelledby="title desc">
  <title id="title">Hullwork Site</title><desc id="desc">Verified website delivery for AI agents</desc>
  <defs>
    <linearGradient id="bg" x1="0" y1="0" x2="1" y2="1"><stop offset="0" stop-color="#030817"/><stop offset="1" stop-color="#092a43"/></linearGradient>
    <linearGradient id="line" x1="0" y1="0" x2="1" y2="1"><stop offset="0" stop-color="#397fff"/><stop offset=".72" stop-color="#2bd7e7"/><stop offset="1" stop-color="#c7ff3d"/></linearGradient>
  </defs>
  <rect width="1200" height="360" rx="26" fill="url(#bg)"/>
  <text x="54" y="62" fill="#65ddec" font-family="ui-monospace, SFMono-Regular, Menlo, monospace" font-size="16" font-weight="700" letter-spacing="2">HULLWORK / DELIVERY</text>
  <text x="54" y="145" fill="#f5f8ff" font-family="-apple-system, BlinkMacSystemFont, Segoe UI, sans-serif" font-size="50" font-weight="760">SITE</text>
  <text x="54" y="190" fill="#afc2da" font-family="-apple-system, BlinkMacSystemFont, Segoe UI, sans-serif" font-size="23">Verified website delivery for AI agents</text>
  <g fill="#102d48" stroke="#3f8eff" stroke-opacity=".72" stroke-width="2"><rect x="54" y="229" width="126" height="40" rx="20"/><rect x="194" y="229" width="85" height="40" rx="20"/><rect x="293" y="229" width="160" height="40" rx="20"/><rect x="467" y="229" width="124" height="40" rx="20"/></g>
  <g fill="#cfe8ff" font-family="ui-monospace, SFMono-Regular, Menlo, monospace" font-size="13" text-anchor="middle"><text x="117" y="254">KUBERNETES</text><text x="236" y="254">MCP</text><text x="373" y="254">SCALE-TO-ZERO</text><text x="529" y="254">VERIFIED</text></g>
  <text x="54" y="316" fill="#6f89a9" font-family="ui-monospace, SFMono-Regular, Menlo, monospace" font-size="14">DEPLOY · OBSERVE · FETCH · RECORD THE EVIDENCE</text>
  <g transform="translate(964 177)">
    <rect x="-122" y="-116" width="244" height="178" rx="19" fill="#07182d" stroke="url(#line)" stroke-width="4"/><path d="M-122-74h244" stroke="#5bddec" stroke-opacity=".65" stroke-width="2"/>
    <circle cx="-92" cy="-95" r="6" fill="#3f86ff"/><circle cx="-70" cy="-95" r="6" fill="#2bd7e7"/><circle cx="-48" cy="-95" r="6" fill="#c7ff3d"/>
    <path d="M-72-23h52m-25-25 25 25-25 25M-4 27h70" fill="none" stroke="#d8f4ff" stroke-opacity=".84" stroke-width="5" stroke-linecap="round" stroke-linejoin="round"/>
    <circle cx="78" cy="27" r="36" fill="#0d2b47" stroke="#2bd7e7" stroke-width="3"/><path d="m61 27 12 12 23-27" fill="none" stroke="#c7ff3d" stroke-width="7" stroke-linecap="round" stroke-linejoin="round"/><path d="M0 62v32m-48 0h96" fill="none" stroke="#5bddec" stroke-opacity=".7" stroke-width="4" stroke-linecap="round"/>
  </g>
</svg>
